<!DOCTYPE svg PUBLIC "-//W3C//DTD SVG 20010904//EN" "http://www.w3.org/TR/2001/REC-SVG-20010904/DTD/svg10.dtd">
<svg version="1.0" xmlns="http://www.w3.org/2000/svg" width="932px" height="488px" viewBox="0 0 9320 4880" preserveAspectRatio="xMidYMid meet">
<g id="layer101" fill="#2eaded" stroke="none">
 <path d="M0 2440 l0 -2440 4660 0 4660 0 0 2440 0 2440 -4660 0 -4660 0 0 -2440z"/>
 </g>
<g id="layer102" fill="#ffffff" stroke="none">
 <path d="M2602 4250 c-87 -53 -95 -167 -16 -229 46 -36 123 -39 168 -6 26 20 11 39 -17 20 -12 -8 -41 -15 -65 -15 -37 0 -50 6 -78 34 -46 46 -48 100 -4 149 36 41 78 52 126 32 44 -18 48 -19 52 -6 5 15 -59 41 -100 41 -18 0 -48 -9 -66 -20z"/>
 <path d="M3000 4130 c0 -118 2 -140 15 -140 12 0 15 14 15 65 l0 65 85 0 85 0 0 -65 c0 -51 3 -65 15 -65 13 0 15 22 15 140 0 118 -2 140 -15 140 -12 0 -15 -14 -15 -65 l0 -65 -85 0 -85 0 0 65 c0 51 -3 65 -15 65 -13 0 -15 -22 -15 -140z"/>
 <path d="M3443 4258 c55 -135 122 -268 135 -266 12 3 132 247 132 270 0 4 -6 8 -14 8 -8 0 -20 -16 -26 -35 l-12 -35 -79 0 -79 0 -17 35 c-9 19 -23 35 -31 35 -8 0 -12 -6 -9 -12z m197 -92 c0 -10 -62 -138 -65 -134 -2 2 -17 34 -34 71 l-30 67 64 0 c36 0 65 -2 65 -4z"/>
 <path d="M3980 4145 l0 -125 -45 0 c-33 0 -45 -4 -45 -15 0 -12 18 -15 105 -15 87 0 105 3 105 15 0 11 -12 15 -45 15 l-45 0 0 125 c0 104 -2 125 -15 125 -13 0 -15 -21 -15 -125z"/>
 <path d="M4582 4133 c3 -113 6 -138 18 -140 9 -2 47 41 95 108 l80 111 5 -108 c3 -73 9 -109 18 -112 9 -3 12 29 12 137 0 110 -3 141 -13 141 -7 0 -49 -49 -93 -110 -43 -60 -82 -110 -86 -110 -5 0 -8 50 -8 110 0 92 -2 110 -15 110 -13 0 -15 -20 -13 -137z"/>
 <path d="M5570 4129 l0 -142 78 5 c88 5 118 20 133 65 13 39 -9 98 -40 108 -21 6 -21 8 14 56 28 40 32 49 17 49 -9 0 -29 -20 -45 -45 -28 -43 -31 -45 -78 -45 l-49 0 0 45 c0 33 -4 45 -15 45 -13 0 -15 -22 -15 -141z m172 1 c24 -29 23 -65 -2 -90 -16 -16 -33 -20 -80 -20 l-60 0 0 71 0 72 62 -6 c48 -4 67 -11 80 -27z"/>
 <path d="M6085 4260 c-11 -4 -33 -22 -50 -40 -26 -27 -30 -39 -30 -90 0 -51 4 -63 30 -90 59 -62 150 -64 209 -5 65 64 54 161 -23 212 -35 24 -97 30 -136 13z m106 -25 c34 -18 69 -70 69 -103 0 -31 -25 -77 -52 -96 -26 -18 -86 -21 -121 -5 -77 35 -73 170 6 204 42 18 62 18 98 0z"/>
 <path d="M6510 4130 c0 -118 2 -140 15 -140 13 0 15 21 15 130 l0 130 60 0 c33 0 60 4 60 10 0 6 -32 10 -75 10 l-75 0 0 -140z"/>
 <path d="M6880 4130 c0 -118 2 -140 15 -140 13 0 15 21 15 130 l0 130 60 0 c33 0 60 4 60 10 0 6 -32 10 -75 10 l-75 0 0 -140z"/>
 <path d="M5044 4066 c-9 -23 0 -69 14 -74 8 -2 12 10 12 42 0 44 -15 62 -26 32z"/>
 <path d="M3020 3674 c-87 -18 -181 -66 -221 -111 -41 -47 -77 -126 -85 -186 -10 -70 9 -87 96 -87 80 0 101 14 119 77 22 79 102 117 246 118 143 0 215 -37 215 -111 0 -56 -45 -80 -253 -135 -301 -79 -396 -156 -397 -319 0 -165 120 -277 321 -302 262 -33 461 70 505 261 11 48 11 59 -2 79 -14 21 -21 23 -97 20 -79 -3 -82 -4 -96 -33 -8 -16 -20 -41 -27 -55 -7 -14 -34 -36 -60 -50 -42 -21 -61 -25 -144 -24 -119 0 -173 23 -189 80 -5 19 -8 41 -5 48 10 27 87 57 253 101 192 51 273 86 331 146 128 132 72 372 -107 451 -105 46 -275 60 -403 32z"/>
 <path d="M5276 3669 c-18 -26 -22 -113 -7 -152 7 -19 23 -29 63 -41 75 -22 124 -59 159 -120 33 -59 45 -66 129 -66 63 0 100 20 100 53 0 33 -42 116 -87 173 -66 83 -189 153 -295 169 -40 6 -47 4 -62 -16z"/>
 <path d="M747 3662 c-13 -14 -17 -37 -17 -89 0 -110 -28 -103 408 -103 324 0 373 2 386 16 12 11 16 35 16 88 0 113 29 106 -407 106 -346 0 -371 -1 -386 -18z"/>
 <path d="M5028 3656 c-195 -80 -308 -266 -308 -506 0 -168 49 -297 151 -399 67 -67 164 -121 232 -128 58 -7 77 17 77 98 0 78 -5 87 -65 114 -65 28 -123 85 -155 150 -22 45 -25 63 -25 165 0 105 3 119 27 166 41 78 73 110 142 143 35 16 66 37 70 46 3 9 6 42 6 74 0 103 -40 123 -152 77z"/>
 <path d="M1632 3654 c-12 -8 -22 -24 -22 -35 0 -21 391 -949 416 -986 13 -21 22 -23 103 -23 71 0 91 3 103 18 9 9 46 89 83 177 37 88 127 302 201 476 74 174 134 328 134 342 0 16 -8 30 -19 37 -24 12 -146 13 -169 1 -9 -5 -42 -68 -72 -140 l-55 -131 -205 0 -205 0 -54 130 c-30 73 -62 135 -72 140 -29 16 -142 12 -167 -6z m609 -486 c-5 -13 -32 -77 -60 -143 l-50 -120 -15 35 c-8 19 -35 83 -60 143 l-45 107 119 0 120 0 -9 -22z"/>
 <path d="M4070 3650 c-19 -19 -20 -33 -20 -210 l0 -190 -200 -286 c-110 -158 -200 -295 -200 -304 0 -36 33 -50 116 -50 49 0 86 5 96 13 8 6 77 101 152 210 76 108 141 195 146 192 5 -3 68 -91 139 -195 72 -104 138 -196 147 -204 11 -12 36 -16 99 -16 88 0 115 12 115 50 0 10 -90 148 -200 306 l-200 289 0 192 c0 187 -1 192 -22 207 -35 24 -142 22 -168 -4z"/>
 <path d="M5904 3656 c-18 -14 -19 -33 -22 -510 -3 -580 -12 -536 106 -536 105 0 101 -8 104 225 l3 200 228 3 227 2 0 -199 c0 -239 -3 -231 105 -231 65 0 76 3 89 22 14 20 16 85 16 510 0 568 8 528 -103 528 -109 0 -107 4 -107 -231 l0 -199 -230 0 -230 0 0 199 c0 195 -1 200 -22 215 -29 21 -137 21 -164 2z"/>
 <path d="M6902 3654 c-12 -8 -22 -22 -22 -30 0 -26 411 -988 428 -1001 21 -17 173 -17 194 0 13 10 412 937 425 989 3 9 -5 26 -16 37 -28 28 -148 31 -180 4 -11 -10 -43 -73 -72 -141 l-51 -122 -205 2 -205 3 -50 120 c-27 66 -58 128 -70 138 -27 23 -144 24 -176 1z m618 -469 c0 -3 -26 -66 -57 -141 -52 -126 -57 -134 -69 -112 -15 28 -104 245 -104 253 0 3 52 5 115 5 63 0 115 -2 115 -5z"/>
 <path d="M8312 3654 l-22 -15 0 -410 0 -409 -145 0 c-143 0 -146 0 -172 -26 -23 -23 -25 -31 -21 -91 3 -49 9 -69 23 -79 15 -11 95 -14 420 -14 469 0 435 -8 435 108 0 100 -5 102 -187 102 l-143 0 0 405 c0 473 7 445 -103 445 -40 0 -70 -5 -85 -16z"/>
 <path d="M747 3232 c-23 -26 -24 -154 -1 -176 13 -14 60 -16 358 -16 400 0 376 -7 376 103 0 113 21 107 -378 107 -316 0 -340 -1 -355 -18z"/>
 <path d="M5528 2998 c-8 -7 -27 -34 -42 -60 -32 -56 -81 -93 -154 -114 -61 -18 -72 -36 -72 -119 0 -36 6 -60 18 -76 18 -21 22 -22 75 -11 139 28 274 129 335 252 38 75 40 103 10 124 -28 20 -147 22 -170 4z"/>
 <path d="M747 2802 c-13 -14 -17 -37 -17 -89 0 -110 -28 -103 408 -103 324 0 373 2 386 16 12 11 16 35 16 88 0 113 29 106 -407 106 -346 0 -371 -1 -386 -18z"/>
 <path d="M2562 2174 c-49 -25 -75 -69 -80 -133 -3 -46 0 -62 20 -90 65 -95 191 -94 262 2 29 39 29 125 0 163 -50 67 -135 92 -202 58z m112 -100 c19 -19 21 -54 3 -78 -20 -27 -77 -18 -96 15 -13 24 -13 29 2 53 20 30 66 35 91 10z"/>
 <path d="M3241 2179 c-186 -33 -363 -166 -445 -334 -184 -377 31 -808 443 -891 201 -40 398 23 551 176 123 123 183 268 182 443 0 102 -15 163 -64 267 -73 152 -218 274 -388 324 -68 20 -207 28 -279 15z m244 -104 c229 -60 395 -277 395 -515 0 -68 -35 -194 -72 -258 -91 -159 -270 -262 -458 -262 -141 0 -254 46 -362 148 -154 146 -203 363 -128 565 56 148 200 281 351 321 72 19 201 20 274 1z"/>
 <path d="M2996 1587 c-15 -11 -18 -24 -14 -73 11 -156 147 -297 308 -319 62 -9 90 6 90 45 0 34 -16 45 -83 53 -118 16 -204 107 -222 235 -9 66 -39 88 -79 59z"/>
 <path d="M2237 1800 c-83 -21 -146 -70 -185 -144 -38 -73 -38 -179 0 -252 50 -96 131 -143 244 -144 56 0 81 5 122 26 162 81 202 290 82 427 -63 71 -175 108 -263 87z m157 -121 c50 -34 76 -86 76 -150 0 -63 -21 -103 -74 -144 -82 -62 -212 -30 -261 66 -19 36 -19 122 -1 157 18 34 64 78 96 91 41 18 124 7 164 -20z"/>
 <path d="M2175 1567 c-28 -43 12 -128 70 -153 51 -21 82 -18 100 10 21 31 7 61 -32 71 -36 9 -53 23 -53 46 0 23 -26 49 -50 49 -11 0 -26 -10 -35 -23z"/>
 <path d="M2480 1027 c-115 -33 -210 -113 -258 -214 -24 -51 -27 -70 -27 -158 0 -87 3 -107 27 -157 115 -246 434 -303 622 -111 93 94 130 220 102 345 -21 90 -51 142 -121 206 -90 83 -236 120 -345 89z m221 -120 c145 -75 199 -247 122 -390 -112 -205 -410 -195 -509 18 -49 103 -26 235 54 318 61 64 113 85 209 86 51 1 72 -5 124 -32z"/>
 <path d="M2380 685 c-19 -23 -6 -100 24 -143 47 -69 163 -113 199 -77 35 34 7 85 -47 85 -34 0 -86 49 -86 82 0 54 -60 89 -90 53z"/>
 <path d="M3575 807 c-155 -60 -228 -229 -161 -372 80 -173 293 -217 434 -90 149 134 108 370 -78 454 -51 23 -146 27 -195 8z m141 -92 c191 -57 149 -345 -50 -345 -101 0 -168 63 -174 166 -6 90 32 150 115 179 48 18 50 18 109 0z"/>
 <path d="M3550 590 c-11 -11 -20 -27 -20 -35 0 -31 28 -82 60 -108 27 -23 41 -27 79 -25 42 3 46 5 49 32 4 33 -6 46 -50 60 -23 8 -34 19 -40 41 -7 28 -32 55 -50 55 -4 0 -17 -9 -28 -20z"/>
 </g>

</svg>